<svg xmlns="http://www.w3.org/2000/svg" viewBox="0 0 2000 1000" preserveAspectRatio="xMidYMid meet">
  <defs>
    <style> .track { fill:none; stroke:#444; stroke-width:18; stroke-linecap:round; stroke-linejoin:round; } </style>
  </defs>
  <path class="track" d="M150 500 C150 300 300 200 500 200 C700 200 800 300 900 300 C1000 300 1100 250 1200 250 C1300 250 1400 300 1500 350 C1600 400 1700 500 1700 600 C1700 700 1600 800 1500 800 C1400 800 1300 750 1200 750 C1100 750 1000 800 900 800 C800 800 700 700 600 650 C500 600 350 600 250 550 Z"/>
</svg>
